<?xml version="1.0" standalone="no"?><!DOCTYPE svg PUBLIC "-//W3C//DTD SVG 1.1//EN" "http://www.w3.org/Graphics/SVG/1.1/DTD/svg11.dtd"><svg t="1657635505435" class="icon" viewBox="0 0 1024 1024" version="1.1" xmlns="http://www.w3.org/2000/svg" p-id="3093" xmlns:xlink="http://www.w3.org/1999/xlink" width="200" height="200"><defs><style type="text/css"></style></defs><path d="M1000.7 381.1s-110.4 96.9-262 91c-95.1-3.7-170.7-19.4-170.7-19.4s36.6-98.8 177.6-155.8c159.5-64.7 251 80.1 251 80.1" fill="#E4EADC" p-id="3094"></path><path d="M552 567.4l-95.7-95.7c-88.3-88.3-232.9-88.3-321.2 0l-25.4 25.4c-88.3 88.3-88.3 232.9 0 321.2l22 22c-13.9 31.7-33.5 69.2-58.9 100.9l-56.5 70.3s32.3-27.7 81.9-58.8c24.9-15.6 62.8-34.4 96.3-49.7l11 11c88.3 88.3 232.9 88.3 321.2 0l25.4-25.4c88.2-88.4 88.2-232.9-0.1-321.2z" fill="#FFFFFF" p-id="3095"></path><path d="M552.1 567.5l-30.6-30.6c-88.3-88.3-232.9-88.3-321.2 0l-25.4 25.4c-88.3 88.4-88.9 211.3-41 263.6l-11.1 42.3c-13.9 31.7-25.7 37.3-51.2 69-56.5 70.3-47.9 65.7-47.9 65.7s25-18.8 74.6-49.9c24.9-15.6 45.5-23.8 79-39.1l26.7-6.7c88.3 88.3 234.4 95.3 322.7 7l25.4-25.4c88.4-88.4 88.4-232.9 0-321.3z" fill="#9F58BC" p-id="3096"></path><path d="M28.8 1021.9c-5.9 0-11.7-2.4-16.1-7-7.7-8.1-8.3-20.8-1.3-29.5l44.9-55.9c18.2-22.6 35.2-50.9 50.6-84l-12.2-12.2c-46.5-46.5-72.1-108.6-72.1-174.7 0-66.2 25.6-128.2 72.1-174.7l25.4-25.4c46.5-46.5 108.6-72.1 174.7-72.1S423 412 469.5 458.5l95.7 95.7c46.5 46.5 72.1 108.6 72.1 174.7s-25.5 128.1-72 174.6L539.9 929c-46.5 46.5-108.6 72.1-174.7 72.1-66.2 0-128.2-25.6-174.7-72.1l-1.1-1.1c-29.6 13.6-60.7 28.4-80.5 42.2-28.8 20-52.1 36.9-66.6 47.5-4.2 2.9-8.8 4.3-13.5 4.3z m169.1-142l20.8 20.8c38.9 38.9 91 60.4 146.5 60.4s107.5-21.4 146.5-60.4l25.4-25.4c38.9-38.9 60.4-91 60.4-146.5S576 621.3 537 582.3l-95.7-95.7c-38.9-38.9-91-60.4-146.5-60.4s-107.5 21.4-146.5 60.4L123 512.1c-38.9 38.9-60.4 91-60.4 146.5S84 766.1 123 805.1l31.6 31.6-5.5 12.5c-11.8 26.9-24.6 51.2-38.3 72.7 22.7-12.6 49.7-24.9 74.3-36.2l12.8-5.8zM751 493.1c-4.6 0-9.2-0.1-13.9-0.3-95.7-3.7-160.1-16.9-162.8-17.4l-20.4-4.2L559 451c1.1-4.5 29.6-111.7 178.3-171.9 90.5-36.6 160.8-10.6 203.9 17.7 42 27.6 66.3 62.3 70.9 69.2 1.1 0.8 2.1 1.7 3 2.8 7.3 8.3 6.4 20.9-1.9 28.2-1.2 1.1-30.1 26.2-78.4 50.5-42.1 21.1-107.2 45.6-183.8 45.6z m-144.9-52.8c26.6 4.1 73.7 10.2 132.6 12.5 73.6 2.9 136.8-20.5 177-40.6 24.6-12.3 43.8-24.9 56-33.8-9.4-11.9-27.7-32.3-53.6-49.1-50.7-32.8-106.5-37.3-165.8-13.3-67.4 27.3-105.8 65.1-126.2 92.1-9.2 12.3-15.6 23.4-20 32.2z" fill="#424649" p-id="3097"></path><path d="M628.6 450.6c-5.8 0-11.6-2.5-15.6-7.4-7-8.6-5.6-21.2 3-28.1 30.2-24.5 58.3-39.3 93.9-49.6 43.6-12.7 96.3-3.4 98.5-3 10.9 2 18.1 12.3 16.2 23.2-2 10.9-12.3 18.1-23.2 16.2-0.8-0.1-46-7.9-80.3 2.1-30.5 8.9-53.7 21.1-79.8 42.3-3.8 2.8-8.3 4.3-12.7 4.3z" fill="#424649" p-id="3098"></path><path d="M673.4 80.2s-77.2 85.3-68.8 239.4c5.3 96.7 16.7 105.7 16.7 105.7s72.9-9.1 115.7-155.8c33-112.9-47.5-205.4-47.5-205.4" fill="#E4EADC" p-id="3099"></path><path d="M520.4 531.3c-5.2 0-10.3-2-14.2-6-7.8-7.9-7.7-20.5 0.2-28.3l1.9-1.9c52.2-50.3 88.3-109.8 109.4-150.8 41.3-80.1 25-180.1 24.9-181.1-1.8-10.9 5.5-21.2 16.4-23.1 10.9-1.8 21.2 5.5 23.1 16.4 0.8 4.6 18.6 114.2-28.7 206.1-22.5 43.7-61.1 107.2-117.2 161.3-0.7 0.6-1.2 1.2-1.6 1.6-4.1 3.9-9.1 5.8-14.2 5.8z" fill="#424649" p-id="3100"></path><path d="M573.2 477.7l-7.9-6.1c-4.5-3.4-6.5-6.7-11.6-22.1-2.5-7.5-6.2-19.7-9.8-36-6.1-27.4-12.9-71.1-10.8-123.6 3.2-82.9 28-153.3 48.2-197.7 21.9-48.3 43.1-77 44-78.2 6.6-8.9 19.1-10.7 28-4.1 1.6 1.2 3 2.6 4.1 4.1 6.7 4.5 42.4 29.6 71.2 72.8 29.3 44.1 56.8 115.7 21.1 207C691 443.7 587.3 473.8 582.9 475l-9.7 2.7z m72.7-422.3c-7.6 12.4-18.1 31-28.7 54.5-18.5 41-41.2 105.7-44.1 181.7-2.4 61.3 8.4 111.7 16.1 137.7 8.9-4.5 20.7-11.5 33.7-21.9 26.1-20.8 62.9-59.9 89.5-128.1 23.4-59.9 17.9-116.8-16.4-169.1-17.2-26.1-37.7-44.8-50.1-54.8z" fill="#424649" p-id="3101"></path></svg>